<svg width="70" height="70" viewBox="-15 -5 80 80" fill="none" xmlns="http://www.w3.org/2000/svg">
    <g opacity="0.4">
        <path d="M20.272 0.583997L37.352 39H31.752L26.656 27.744H10.416L5.6 39H0L16.408 0.583997H20.272ZM18.256 8.984L12.544 22.816H24.416L18.256 8.984Z"
              fill="#FE5266"/>
        <path d="M20.272 0.583998L22.0995 -0.228527L21.5716 -1.416H20.272V0.583998ZM37.352 39V41H40.43L39.1795 38.1875L37.352 39ZM31.752 39L29.93 39.8249L30.4621 41H31.752V39ZM26.656 27.744L28.478 26.9191L27.946 25.744H26.656V27.744ZM10.416 27.744V25.744H9.09635L8.57724 26.9573L10.416 27.744ZM5.6 39V41H6.91965L7.43876 39.7867L5.6 39ZM0 39L-1.83926 38.2144L-3.02902 41H0V39ZM16.408 0.583998V-1.416H15.0874L14.5687 -0.201576L16.408 0.583998ZM18.256 8.984L20.083 8.17035L18.1866 3.91212L16.4074 8.22062L18.256 8.984ZM12.544 22.816L10.6954 22.0526L9.55427 24.816H12.544V22.816ZM24.416 22.816V24.816H27.4961L26.243 22.0023L24.416 22.816ZM18.4445 1.39652L35.5245 39.8125L39.1795 38.1875L22.0995 -0.228527L18.4445 1.39652ZM37.352 37H31.752V41H37.352V37ZM33.574 38.1751L28.478 26.9191L24.834 28.5689L29.93 39.8249L33.574 38.1751ZM26.656 25.744H10.416V29.744H26.656V25.744ZM8.57724 26.9573L3.76124 38.2133L7.43876 39.7867L12.2548 28.5307L8.57724 26.9573ZM5.6 37H0V41H5.6V37ZM1.83926 39.7856L18.2473 1.36957L14.5687 -0.201576L-1.83926 38.2144L1.83926 39.7856ZM16.408 2.584H20.272V-1.416H16.408V2.584ZM16.4074 8.22062L10.6954 22.0526L14.3926 23.5794L20.1046 9.74738L16.4074 8.22062ZM12.544 24.816H24.416V20.816H12.544V24.816ZM26.243 22.0023L20.083 8.17035L16.429 9.79765L22.589 23.6297L26.243 22.0023Z"
              fill="#FE5266"/>
    </g>
</svg>
