<svg width="61" height="85" viewBox="0 0 61 85" fill="none" xmlns="http://www.w3.org/2000/svg">
<path d="M30.4998 53.875C34.5223 53.875 38.38 52.277 41.2243 49.4327C44.0686 46.5884 45.6665 42.7307 45.6665 38.7083V15.9583C45.6665 11.9358 44.0686 8.07814 41.2243 5.23384C38.38 2.38954 34.5223 0.791626 30.4998 0.791626C26.4774 0.791626 22.6197 2.38954 19.7754 5.23384C16.9311 8.07814 15.3332 11.9358 15.3332 15.9583V38.7083C15.3332 42.7307 16.9311 46.5884 19.7754 49.4327C22.6197 52.277 26.4774 53.875 30.4998 53.875ZM22.9165 15.9583C22.9165 13.9471 23.7155 12.0182 25.1376 10.5961C26.5598 9.17391 28.4886 8.37496 30.4998 8.37496C32.5111 8.37496 34.4399 9.17391 35.8621 10.5961C37.2842 12.0182 38.0832 13.9471 38.0832 15.9583V38.7083C38.0832 40.7195 37.2842 42.6484 35.8621 44.0705C34.4399 45.4927 32.5111 46.2916 30.4998 46.2916C28.4886 46.2916 26.5598 45.4927 25.1376 44.0705C23.7155 42.6484 22.9165 40.7195 22.9165 38.7083V15.9583ZM60.8332 38.7083C60.8332 37.7027 60.4337 36.7383 59.7226 36.0272C59.0115 35.3161 58.0471 34.9166 57.0415 34.9166C56.0359 34.9166 55.0715 35.3161 54.3604 36.0272C53.6493 36.7383 53.2498 37.7027 53.2498 38.7083C53.2498 44.742 50.853 50.5285 46.5865 54.795C42.3201 59.0614 36.5335 61.4583 30.4998 61.4583C24.4662 61.4583 18.6796 59.0614 14.4132 54.795C10.1467 50.5285 7.74984 44.742 7.74984 38.7083C7.74984 37.7027 7.35036 36.7383 6.63928 36.0272C5.92821 35.3161 4.96378 34.9166 3.95817 34.9166C2.95256 34.9166 1.98813 35.3161 1.27706 36.0272C0.565983 36.7383 0.166504 37.7027 0.166504 38.7083C0.173199 46.0918 2.8727 53.2193 7.75893 58.7547C12.6452 64.2901 19.3826 67.8533 26.7082 68.7762V76.625H19.1248C18.1192 76.625 17.1548 77.0244 16.4437 77.7355C15.7326 78.4466 15.3332 79.411 15.3332 80.4166C15.3332 81.4222 15.7326 82.3867 16.4437 83.0977C17.1548 83.8088 18.1192 84.2083 19.1248 84.2083H41.8748C42.8804 84.2083 43.8449 83.8088 44.5559 83.0977C45.267 82.3867 45.6665 81.4222 45.6665 80.4166C45.6665 79.411 45.267 78.4466 44.5559 77.7355C43.8449 77.0244 42.8804 76.625 41.8748 76.625H34.2915V68.7762C41.6171 67.8533 48.3545 64.2901 53.2407 58.7547C58.127 53.2193 60.8265 46.0918 60.8332 38.7083Z" fill="black" fill-opacity="0.1"/>
</svg>
