<svg width="50" height="50" viewBox="0 0 50 50" fill="none" xmlns="http://www.w3.org/2000/svg">
    <path d="M25 50C11.1744 50 0 38.8292 0 25C0 11.1743 11.1709 0 25 0C38.8257 0 50 11.1708 50 25C50 38.8256 38.8292 50 25 50Z"
          fill="#FDF8F4" fill-opacity="0.9"/>
    <path d="M16.2109 36.7187V13.2812C16.2109 12.741 16.5083 12.2446 16.9846 11.9897C17.4608 11.7348 18.0389 11.7628 18.4883 12.0624L36.0664 23.7811C36.4739 24.0528 36.7188 24.5101 36.7188 25C36.7188 25.4898 36.474 25.9471 36.0664 26.2188L18.4883 37.9376C17.5259 38.5793 16.2109 37.8977 16.2109 36.7187Z"
          fill="#505050"/>
</svg>
