<svg width="50" height="50" viewBox="-10 -5 60 60" fill="none" xmlns="http://www.w3.org/2000/svg">
    <g opacity="0.4">
        <path d="M25.776 39V38.944V39.056C28.24 40.1013 30.3493 40.8853 32.104 41.408C33.896 41.9307 35.52 42.192 36.976 42.192C37.4987 42.192 38.0213 42.1547 38.544 42.08C39.0667 42.0053 39.5707 41.8933 40.056 41.744L40.224 41.912L35.296 46.784C31.6 46.5227 28.2027 45.6453 25.104 44.152C22.0427 42.696 19.1867 40.9787 16.536 39C11.7947 38.1413 7.93067 35.9387 4.944 32.392C1.99467 28.8453 0.52 24.7013 0.52 19.96C0.52 14.1733 2.48 9.46933 6.4 5.848C10.32 2.18933 15.3787 0.359997 21.576 0.359997C27.288 0.359997 32.0667 2.24533 35.912 6.016C39.7573 9.78666 41.68 14.472 41.68 20.072C41.68 24.7013 40.1867 28.808 37.2 32.392C34.2133 35.9387 30.4053 38.1413 25.776 39ZM21.352 5.344C17.1333 5.38133 13.8853 6.42667 11.608 8.48C9.33067 10.496 7.8 12.7173 7.016 15.144C6.71733 16.0027 6.49333 16.8427 6.344 17.664C6.232 18.4853 6.176 19.2693 6.176 20.016C6.176 23.8613 7.44533 27.24 9.984 30.152C12.56 33.064 16.3867 34.52 21.464 34.52C25.72 34.52 29.2107 33.1013 31.936 30.264C34.6613 27.3893 36.024 24.0107 36.024 20.128C36.024 15.9467 34.624 12.456 31.824 9.656C29.0613 6.81866 25.5707 5.4 21.352 5.4V5.344Z"
              fill="#FE5266"/>
        <path d="M25.776 39H23.776V41.4051L26.1407 40.9665L25.776 39ZM25.776 39.056H23.776V40.3801L24.9949 40.8972L25.776 39.056ZM32.104 41.408L31.533 43.3248L31.544 43.328L32.104 41.408ZM40.056 41.744L41.4702 40.3298L40.6188 39.4783L39.4678 39.8324L40.056 41.744ZM40.224 41.912L41.6301 43.3343L43.0605 41.9201L41.6382 40.4978L40.224 41.912ZM35.296 46.784L35.1549 48.779L36.0582 48.8429L36.7021 48.2063L35.296 46.784ZM25.104 44.152L25.9723 42.3503L25.963 42.3459L25.104 44.152ZM16.536 39L17.7324 37.3973L17.3554 37.1159L16.8924 37.032L16.536 39ZM4.944 32.392L3.4062 33.6708L3.41418 33.6803L4.944 32.392ZM6.4 5.848L7.75716 7.31709L7.76464 7.31011L6.4 5.848ZM35.912 6.016L37.3123 4.58799L35.912 6.016ZM37.2 32.392L38.7298 33.6803L38.7364 33.6724L37.2 32.392ZM21.352 5.344H23.352V3.32622L21.3343 3.34408L21.352 5.344ZM11.608 8.48L12.9337 9.97752L12.9405 9.97148L12.9473 9.96538L11.608 8.48ZM7.016 15.144L8.90499 15.801L8.9123 15.78L8.91914 15.7589L7.016 15.144ZM6.344 17.664L4.37626 17.3062L4.36833 17.3498L4.36234 17.3938L6.344 17.664ZM9.984 30.152L8.47646 31.4663L8.48121 31.4717L8.48601 31.4771L9.984 30.152ZM31.936 30.264L33.3784 31.6495L33.3874 31.64L31.936 30.264ZM31.824 9.656L30.3911 11.0512L30.4004 11.0608L30.4098 11.0702L31.824 9.656ZM21.352 5.4H19.352V7.4H21.352V5.4ZM27.776 39V38.944H23.776V39H27.776ZM23.776 38.944V39.056H27.776V38.944H23.776ZM24.9949 40.8972C27.4993 41.9596 29.6826 42.7736 31.533 43.3248L32.675 39.4912C31.016 38.9971 28.9807 38.243 26.5571 37.2148L24.9949 40.8972ZM31.544 43.328C33.4695 43.8896 35.2859 44.192 36.976 44.192V40.192C35.7541 40.192 34.3225 39.9717 32.664 39.488L31.544 43.328ZM36.976 44.192C37.5943 44.192 38.2114 44.1478 38.8268 44.0599L38.2612 40.1001C37.8312 40.1615 37.4031 40.192 36.976 40.192V44.192ZM38.8268 44.0599C39.4488 43.971 40.0551 43.8368 40.6442 43.6556L39.4678 39.8324C39.0862 39.9499 38.6845 40.0396 38.2612 40.1001L38.8268 44.0599ZM38.6418 43.1582L38.8098 43.3262L41.6382 40.4978L41.4702 40.3298L38.6418 43.1582ZM38.8179 40.4897L33.8899 45.3617L36.7021 48.2063L41.6301 43.3343L38.8179 40.4897ZM35.4371 44.789C31.9739 44.5441 28.8259 43.7255 25.9723 42.3503L24.2357 45.9537C27.5795 47.5651 31.2261 48.5012 35.1549 48.779L35.4371 44.789ZM25.963 42.3459C23.0176 40.945 20.275 39.2953 17.7324 37.3973L15.3396 40.6027C18.0984 42.662 21.0677 44.447 24.245 45.9581L25.963 42.3459ZM16.8924 37.032C12.5899 36.2528 9.14792 34.2792 6.47382 31.1037L3.41418 33.6803C6.71342 37.5981 10.9994 40.0298 16.1796 40.968L16.8924 37.032ZM6.48177 31.1132C3.84008 27.9365 2.52 24.2484 2.52 19.96H-1.48C-1.48 25.1543 0.149255 29.7542 3.40623 33.6708L6.48177 31.1132ZM2.52 19.96C2.52 14.6787 4.28403 10.5256 7.75714 7.31707L5.04286 4.37893C0.67597 8.4131 -1.48 13.668 -1.48 19.96H2.52ZM7.76464 7.31011C11.2568 4.05076 15.8007 2.36 21.576 2.36V-1.64C14.9566 -1.64 9.38321 0.327902 5.03536 4.38589L7.76464 7.31011ZM21.576 2.36C26.7995 2.36 31.0646 4.06384 34.5117 7.44401L37.3123 4.58799C33.0687 0.426825 27.7765 -1.64 21.576 -1.64V2.36ZM34.5117 7.44401C37.9567 10.8221 39.68 14.9853 39.68 20.072H43.68C43.68 13.9587 41.558 8.75123 37.3123 4.58799L34.5117 7.44401ZM39.68 20.072C39.68 24.2295 38.3533 27.884 35.6636 31.1116L38.7364 33.6724C42.0201 29.732 43.68 25.1732 43.68 20.072H39.68ZM35.6702 31.1037C32.9867 34.2904 29.5931 36.2579 25.4113 37.0335L26.1407 40.9665C31.2176 40.0248 35.44 37.5869 38.7298 33.6803L35.6702 31.1037ZM21.3343 3.34408C16.8113 3.3841 13.0257 4.50878 10.2687 6.99462L12.9473 9.96538C14.7449 8.34455 17.4554 7.37856 21.3697 7.34392L21.3343 3.34408ZM10.2823 6.98248C7.78887 9.18979 6.02641 11.7015 5.11286 14.5291L8.91914 15.7589C9.57359 13.7332 10.8725 11.8022 12.9337 9.97752L10.2823 6.98248ZM5.12701 14.487C4.79737 15.4347 4.54562 16.3747 4.37626 17.3062L8.31174 18.0218C8.44104 17.3106 8.6373 16.5707 8.90499 15.801L5.12701 14.487ZM4.36234 17.3938C4.23944 18.295 4.176 19.1697 4.176 20.016H8.176C8.176 19.3689 8.22456 18.6756 8.32566 17.9342L4.36234 17.3938ZM4.176 20.016C4.176 24.347 5.62189 28.1919 8.47646 31.4663L11.4915 28.8377C9.26877 26.2881 8.176 23.3757 8.176 20.016H4.176ZM8.48601 31.4771C11.5496 34.9403 15.9998 36.52 21.464 36.52V32.52C16.7735 32.52 13.5704 31.1877 11.482 28.8269L8.48601 31.4771ZM21.464 36.52C26.2149 36.52 30.243 34.9137 33.3784 31.6495L30.4936 28.8785C28.1783 31.289 25.2251 32.52 21.464 32.52V36.52ZM33.3874 31.64C36.4571 28.4022 38.024 24.534 38.024 20.128H34.024C34.024 23.4873 32.8656 26.3765 30.4846 28.888L33.3874 31.64ZM38.024 20.128C38.024 15.4492 36.436 11.4395 33.2382 8.24178L30.4098 11.0702C32.812 13.4724 34.024 16.4441 34.024 20.128H38.024ZM33.2569 8.26076C30.0913 5.00954 26.0711 3.4 21.352 3.4V7.4C25.0702 7.4 28.0314 8.62779 30.3911 11.0512L33.2569 8.26076ZM23.352 5.4V5.344H19.352V5.4H23.352Z"
              fill="#FE5266"/>
    </g>
</svg>
