<svg width="96" height="80" viewBox="0 0 96 80" fill="none" xmlns="http://www.w3.org/2000/svg">
    <g opacity="0.2">
        <path d="M30.5117 36.081C28.1637 35.405 25.8157 35.062 23.5317 35.062C20.0047 35.062 17.0617 35.868 14.7797 36.855C16.9797 28.801 22.2647 14.904 32.7927 13.339C33.7677 13.194 34.5667 12.489 34.8327 11.54L37.1337 3.31C37.3277 2.614 37.2127 1.869 36.8157 1.265C36.4187 0.661 35.7807 0.258 35.0657 0.16C34.2887 0.0539998 33.4967 0 32.7117 0C20.0747 0 7.55972 13.19 2.27872 32.076C-0.821281 43.156 -1.73028 59.814 5.90572 70.299C10.1787 76.166 16.4127 79.299 24.4347 79.612C24.4677 79.613 24.4997 79.614 24.5327 79.614C34.4307 79.614 43.2077 72.948 45.8777 63.405C47.4727 57.7 46.7517 51.717 43.8457 46.554C40.9707 41.449 36.2357 37.728 30.5117 36.081Z"
              fill="#FFD3AF"/>
        <path d="M92.4708 46.555C89.5958 41.449 84.8608 37.728 79.1368 36.081C76.7888 35.405 74.4408 35.062 72.1578 35.062C68.6308 35.062 65.6868 35.868 63.4048 36.855C65.6048 28.801 70.8898 14.904 81.4188 13.339C82.3938 13.194 83.1918 12.489 83.4588 11.54L85.7598 3.31C85.9538 2.614 85.8388 1.869 85.4418 1.265C85.0458 0.661 84.4078 0.258 83.6918 0.16C82.9158 0.0539998 82.1238 0 81.3378 0C68.7008 0 56.1858 13.19 50.9038 32.076C47.8048 43.156 46.8958 59.814 54.5328 70.301C58.8048 76.167 65.0398 79.301 73.0608 79.613C73.0938 79.614 73.1258 79.615 73.1598 79.615C83.0568 79.615 91.8348 72.949 94.5048 63.406C96.0978 57.701 95.3758 51.717 92.4708 46.555Z"
              fill="#FFD3AF"/>
    </g>
</svg>
